Thomas And Friends Wobbly Wheels And Whistles 2011 DVDRip][XVID][ICM369
_______________________________________________________________________


Screenshots: http://leetleech.org/images/15369702249995756617.jpg


Come along with Thomas for a wonderfully wobbly and wheelspinning good 
time! 

Your favourite friend has bridges to cross and tracks to uncover in 
these exciting adventures. 

When Victor gets overloaded with too many tasks, can Thomas help him let 
out the steam? 

While trying to get Scruff as clean as a whistle, will Thomas have to get 
his own wheels dirty? 
Just when things seem to be rolling along, will Ol\\\\\\\' Wheezy make a wobbly 
mess of Thomas\\\\\\\' special delivery? Hold on for exciting surprises waiting 
to be delivered just for you!

Join Thomas and some of his friends on for some extra special adventures 
on the island of Sodor. 

Includes the episode \\\\\\\'Toby And The Whistling Woods\\\\\\\', \\\\\\\'Victor Says Yes\\\\\\\', 
\\\\\\\'Jumping Jobi Wood!\\\\\\\', and \\\\\\\'Thomas And Scruff\\\\\\\'.
__________

Format                           : AVI
Format/Info                      : Audio Video Interleave
File size                        : 679 MiB
Duration                         : 48mn 22s
Overall bit rate                 : 1 962 Kbps
Writing application              : VirtualDubMod 1.5.10.3 | www.virtualdub-fr.org || (build 2550/release)
Writing library                  : VirtualDubMod build 2550/release

Video
ID                               : 0
Format                           : MPEG-4 Visual
Format profile                   : Advanced Simple@L5
Format settings, BVOP            : Yes
Format settings, QPel            : No
Format settings, GMC             : No warppoints
Format settings, Matrix          : Default (MPEG)
Muxing mode                      : Packed bitstream
Codec ID                         : XVID
Codec ID/Hint                    : XviD
Duration                         : 48mn 22s
Bit rate                         : 1 761 Kbps
Width                            : 656 pixels
Height                           : 480 pixels
Display aspect ratio             : 4:3
Frame rate                       : 23.976 fps
Color space                      : YUV
Chroma subsampling               : 4:2:0
Bit depth                        : 8 bits
Scan type                        : Interlaced
Scan order                       : Bottom Field First
Bits/(Pixel*Frame)               : 0.233
Stream size                      : 609 MiB (90%)
Writing library                  : XviD 58

Audio
ID                               : 1
Format                           : AC-3
Format/Info                      : Audio Coding 3
Mode extension                   : CM (complete main)
Codec ID                         : 2000
Duration                         : 48mn 22s
Bit rate mode                    : Constant
Bit rate                         : 192 Kbps
Channel(s)                       : 2 channels
Channel positions                : Front: L R
Sampling rate                    : 48.0 KHz
Bit depth                        : 16 bits
Stream size                      : 66.4 MiB (10%)
Alignment                        : Split accross interleaves
Interleave, duration             : 42 ms (1.00 video frame)
Interleave, preload duration     : 500 ms
__________

Enjoy:D




